<svg id="Layer_1" data-name="Layer 1" xmlns="http://www.w3.org/2000/svg" viewBox="0 0 96 96"><defs><style>.cls-1{fill:gray;}.cls-1,.cls-2{stroke:#7c7c7c;stroke-miterlimit:10;}.cls-2{fill:#7c7c7c;}</style></defs><path class="cls-1" d="M61.46,52.27a2,2,0,0,0,1.41-.58A34.69,34.69,0,0,1,85.78,41.55h.3a2,2,0,1,0-.16-4h-.33a38.61,38.61,0,0,0-25.54,11.3,2,2,0,0,0,1.41,3.41Z"/><path class="cls-2" d="M61.46,52.77a2.5,2.5,0,0,1-1.77-4.26A39.09,39.09,0,0,1,85.56,37.06h.31a2.44,2.44,0,0,1,1.83.66A2.5,2.5,0,0,1,86.1,42h-.3A34.07,34.07,0,0,0,63.23,52,2.51,2.51,0,0,1,61.46,52.77ZM86,38h-.39A38.08,38.08,0,0,0,60.4,49.22a1.48,1.48,0,0,0,0,2.11,1.54,1.54,0,0,0,2.12,0A35.11,35.11,0,0,1,85.75,41.06l.31,0a1.5,1.5,0,0,0,1.44-1.56,1.52,1.52,0,0,0-.48-1A1.54,1.54,0,0,0,86,38Z"/><path class="cls-1" d="M45.72,36.53a2,2,0,0,0,1.41-.59,38.6,38.6,0,0,0,11.3-25.53V10.1a2,2,0,0,0-4-.19v.31A34.67,34.67,0,0,1,44.3,33.12a2,2,0,0,0,1.42,3.41Z"/><path class="cls-2" d="M45.72,37A2.5,2.5,0,0,1,44,32.77a34.1,34.1,0,0,0,10-22.58v-.3a2.45,2.45,0,0,1,.82-1.73,2.49,2.49,0,0,1,3.53.17,2.43,2.43,0,0,1,.64,1.8v.3A39.09,39.09,0,0,1,47.48,36.3,2.47,2.47,0,0,1,45.72,37ZM56.45,8.51A1.5,1.5,0,0,0,55,9.93v.31A35.14,35.14,0,0,1,44.66,33.47a1.49,1.49,0,0,0,0,2.12,1.53,1.53,0,0,0,2.12,0A38.1,38.1,0,0,0,57.93,10.38v-.3A1.47,1.47,0,0,0,57.56,9a1.49,1.49,0,0,0-1-.49Z"/><path class="cls-1" d="M34.12,33.62a2,2,0,0,0-2.83,0,2.06,2.06,0,0,0-.41.6l-22.71,51a2,2,0,0,0,2.64,2.64l51-22.71a2,2,0,0,0,1-2.63,1.81,1.81,0,0,0-.42-.6ZM13.94,82.05,21.54,65l4.58,11.43a1.3,1.3,0,0,0,.08.17Zm18.41-8.2-7-17.45,4.9-11,10,24.92Zm14.06-6.27L35.71,40.87,57.49,62.65Z"/><path class="cls-2" d="M10,88.49a2.59,2.59,0,0,1-1-.21,2.51,2.51,0,0,1-1.31-1.39,2.44,2.44,0,0,1,0-1.91l22.7-51a2.34,2.34,0,0,1,.52-.75,2.54,2.54,0,0,1,3.53,0L62.73,61.52a2.56,2.56,0,0,1,.51.75A2.51,2.51,0,0,1,62,65.57L11,88.28A2.59,2.59,0,0,1,10,88.49Zm22.7-55a1.52,1.52,0,0,0-1.06.44,1.57,1.57,0,0,0-.31.45l-22.7,51a1.53,1.53,0,0,0,0,1.15,1.46,1.46,0,0,0,.79.83,1.45,1.45,0,0,0,1.22,0l51-22.7a1.51,1.51,0,0,0,.76-2,1.57,1.57,0,0,0-.31-.45L33.76,34A1.5,1.5,0,0,0,32.7,33.53ZM13,83l8.61-19.33,5.29,13.11-.46.23Zm8.56-16.77L14.93,81.06l10.62-4.73Zm10.56,8.24L24.83,56.39l5.46-12.26,10.6,26.46Zm-6.17-18.1,6.72,16.77,7-3.11L30.24,46.69ZM46.14,68.25,34.34,38.79l24,24ZM37.08,42.94l9.6,24,9.94-4.43Z"/><line class="cls-1" x1="64.76" y1="31.24" x2="82.7" y2="13.3"/><rect class="cls-2" x="61.04" y="21.77" width="25.38" height="1" transform="translate(5.85 58.66) rotate(-45)"/><path class="cls-1" d="M64.76,33.36a2.09,2.09,0,0,1-1.5-.62,2.12,2.12,0,0,1,0-3L81.2,11.8a2.12,2.12,0,0,1,3,3L66.26,32.74A2.09,2.09,0,0,1,64.76,33.36Z"/><path class="cls-2" d="M64.76,33.86a2.62,2.62,0,0,1-1.86-4.47l17.95-18a2.62,2.62,0,1,1,3.71,3.71l-18,18A2.6,2.6,0,0,1,64.76,33.86ZM82.7,11.67a1.59,1.59,0,0,0-1.14.48l-18,17.94a1.64,1.64,0,0,0,0,2.3,1.67,1.67,0,0,0,2.3,0L83.85,14.45a1.64,1.64,0,0,0,0-2.3A1.61,1.61,0,0,0,82.7,11.67Z"/></svg>