<?xml version="1.0" encoding="utf-8"?>
<!-- Generator: Adobe Illustrator 26.0.1, SVG Export Plug-In . SVG Version: 6.00 Build 0)  -->
<svg version="1.1" id="Layer_1" xmlns="http://www.w3.org/2000/svg" xmlns:xlink="http://www.w3.org/1999/xlink" x="0px" y="0px"
	 viewBox="0 0 96 96" style="enable-background:new 0 0 96 96;" xml:space="preserve">
<style type="text/css">
	.st0{fill:#7C7C7C;}
</style>
<g>
	<path class="st0" d="M88,37.4c-0.6-0.6-1.4-0.8-2.2-0.8l-0.3,0c-9.9,0.5-19.2,4.6-26.2,11.6c-0.6,0.6-0.9,1.3-0.9,2.1
		c0,1.7,1.3,3,3,3h0h0c0.8,0,1.6-0.3,2.1-0.9c5.9-6,13.8-9.5,22.2-9.9l0.3,0c0.7,0,1.4-0.4,2-0.9c0.6-0.6,0.9-1.3,0.9-2.1
		S88.6,37.9,88,37.4z"/>
	<path class="st0" d="M59.5,10.2c0-0.8-0.2-1.6-0.8-2.2l-0.4,0.3v0L58.7,8c-0.5-0.6-1.3-0.9-2.1-1c-0.8,0-1.6,0.2-2.1,0.8
		c-0.6,0.5-1,1.3-1,2.1l0,0.3c-0.4,8.4-3.9,16.3-9.9,22.3c-0.5,0.5-0.8,1.2-0.8,2c0,0.8,0.3,1.6,0.8,2.1c0.5,0.6,1.3,0.9,2.1,0.9
		c0,0,0,0,0,0c0.8,0,1.5-0.3,2.1-0.8c7-7,11.2-16.3,11.7-26.2L59.5,10.2z"/>
	<path class="st0" d="M63.7,62.1c-0.1-0.3-0.4-0.6-0.6-0.9L34.8,32.9c-1.2-1.1-3-1.1-4.2,0c-0.3,0.3-0.5,0.6-0.6,0.9l-22.7,51
		c-0.3,0.7-0.3,1.6,0,2.3c0.3,0.7,0.8,1.3,1.6,1.7C9.2,88.9,9.6,89,10,89h0h0c0.4,0,0.8-0.1,1.2-0.3l51-22.7
		C63.7,65.3,64.4,63.6,63.7,62.1z M39,69.8l-6.1,2.7l-6.4-16.1l3.7-8.4L39,69.8z M38.5,45l17.3,17.3L47,66.3L38.5,45z M24.9,76.1
		l-9,4l5.6-12.6L24.9,76.1z"/>
	<path class="st0" d="M84.9,11c-1.2-1.2-3.2-1.2-4.4,0L62.5,29c-0.6,0.6-0.9,1.4-0.9,2.2c0,0.8,0.3,1.6,0.9,2.2
		c0.6,0.6,1.4,0.9,2.2,0.9c0,0,0,0,0,0h0c0.8,0,1.6-0.3,2.1-0.9l18-18c0.6-0.6,0.9-1.4,0.9-2.2S85.5,11.6,84.9,11z"/>
</g>
</svg>
