<?xml version="1.0" encoding="utf-8"?>
<!-- Generator: Adobe Illustrator 26.0.1, SVG Export Plug-In . SVG Version: 6.00 Build 0)  -->
<svg version="1.1" id="Layer_1" xmlns="http://www.w3.org/2000/svg" xmlns:xlink="http://www.w3.org/1999/xlink" x="0px" y="0px"
	 viewBox="0 0 96 96" style="enable-background:new 0 0 96 96;" xml:space="preserve">
<path d="M23.9,86.3c-1.7,0-3.3-0.4-4.9-1.3c-3-1.8-4.9-4.9-4.9-8.4V19.4c0-3.5,1.8-6.7,4.9-8.4s6.7-1.8,9.7,0l49.5,28.6
	c3,1.8,4.9,4.9,4.9,8.4c0,3.5-1.8,6.7-4.9,8.4L28.8,85C27.3,85.9,25.6,86.3,23.9,86.3z M23.9,16.7c-0.6,0-1.1,0.2-1.4,0.4
	c-0.4,0.2-1.4,0.9-1.4,2.4v57.1c0,1.4,1,2.1,1.4,2.4c0.4,0.2,1.5,0.7,2.7,0l49.5-28.6c1.2-0.7,1.4-1.9,1.4-2.4
	c0-0.5-0.1-1.7-1.4-2.4L25.3,17.1C24.8,16.8,24.3,16.7,23.9,16.7z"/>
</svg>
